<?xml version="1.0" encoding="utf-8"?>
<!-- Generator: Adobe Illustrator 23.1.1, SVG Export Plug-In . SVG Version: 6.00 Build 0)  -->
<svg version="1.1" id="Layer_1" xmlns="http://www.w3.org/2000/svg" xmlns:xlink="http://www.w3.org/1999/xlink" x="0px" y="0px"
	 viewBox="0 0 622.3 125.5" style="enable-background:new 0 0 622.3 125.5;" xml:space="preserve">
<style type="text/css">
	.st0{fill:#8B8121;}
	.st1{fill:#FAF2A1;}
	.st2{enable-background:new    ;}
	.st3{fill:#0F7457;}
	.st4{fill:#00A878;}
</style>
<g class="st2">
	<path class="st3" d="M80.1,101.7h-38l-7.1,17.6H6.4L46.5,14.5h29.7l39.4,104.7h-29L80.1,101.7z M72.9,80.9L61.1,47L49.7,80.9H72.9z
		"/>
	<path class="st3" d="M170.1,14.5c7.8,0,17.9,1.3,25.6,9.3c6,6.1,8.9,15.2,8.9,23.6c0,8.9-3.1,16.8-8.3,21.8
		c-4.1,3.9-9.6,6.3-14.4,7.2l32.8,42.9h-33.8l-26.1-40.2v40.2h-27.2V14.5H170.1z M154.9,61.5h5.2c4.1,0,9.9-1.1,13.2-4.2
		c2-2,3.5-5.5,3.5-8.8c0-3.1-1.3-6.6-3.6-8.8c-2.5-2.5-7.1-4.1-13-4.1h-5.2V61.5z"/>
	<path class="st3" d="M261.8,37.6v81.6h-27.2V37.6h-22.3V14.5h71.7v23.1H261.8z"/>
	<path class="st3" d="M323.3,53.6h39.2V14.5h27.3v104.7h-27.3V76.9h-39.2v42.4h-27.2V14.5h27.2V53.6z"/>
	<path class="st3" d="M439,14.5v62c0,4.4,0.2,11.1,5.3,16.2c3.1,3,8.2,5,12.9,5c4.7,0,9.6-1.9,12.6-4.6c6.3-5.5,6.1-13.2,6.1-19
		V14.5h27.2v60.1c0,11-0.5,22.5-11.8,33.9c-8.8,8.9-19.8,13-34.5,13c-16.5,0-28.3-5.7-34.7-12.6c-9.1-9.9-10.2-23.2-10.2-34.4V14.5
		H439z"/>
	<path class="st3" d="M567.5,14.5c7.8,0,17.9,1.3,25.6,9.3c6,6.1,8.9,15.2,8.9,23.6c0,8.9-3.1,16.8-8.3,21.8
		c-4.1,3.9-9.6,6.3-14.4,7.2l32.8,42.9h-33.8l-26.1-40.2v40.2h-27.2V14.5H567.5z M552.2,61.5h5.2c4.1,0,9.9-1.1,13.2-4.2
		c2-2,3.5-5.5,3.5-8.8c0-3.1-1.3-6.6-3.6-8.8c-2.5-2.5-7.1-4.1-13-4.1h-5.2V61.5z"/>
</g>
<g class="st2">
	<path class="st4" d="M85.1,97.7h-38l-7.1,17.6H11.4L51.5,10.5h29.7l39.4,104.7h-29L85.1,97.7z M77.9,76.9L66.1,43L54.7,76.9H77.9z"
		/>
	<path class="st4" d="M175.1,10.5c7.8,0,17.9,1.3,25.6,9.3c6,6.1,8.9,15.2,8.9,23.6c0,8.9-3.1,16.8-8.3,21.8
		c-4.1,3.9-9.6,6.3-14.4,7.2l32.8,42.9h-33.8l-26.1-40.2v40.2h-27.2V10.5H175.1z M159.9,57.5h5.2c4.1,0,9.9-1.1,13.2-4.2
		c2-2,3.5-5.5,3.5-8.8c0-3.1-1.3-6.6-3.6-8.8c-2.5-2.5-7.1-4.1-13-4.1h-5.2V57.5z"/>
	<path class="st4" d="M266.8,33.6v81.6h-27.2V33.6h-22.3V10.5h71.7v23.1H266.8z"/>
	<path class="st4" d="M328.3,49.6h39.2V10.5h27.3v104.7h-27.3V72.9h-39.2v42.4h-27.2V10.5h27.2V49.6z"/>
	<path class="st4" d="M444,10.5v62c0,4.4,0.2,11.1,5.3,16.2c3.1,3,8.2,5,12.9,5c4.7,0,9.6-1.9,12.6-4.6c6.3-5.5,6.1-13.2,6.1-19
		V10.5h27.2v60.1c0,11-0.5,22.5-11.8,33.9c-8.8,8.9-19.8,13-34.5,13c-16.5,0-28.3-5.7-34.7-12.6c-9.1-9.9-10.2-23.2-10.2-34.4V10.5
		H444z"/>
	<path class="st4" d="M572.5,10.5c7.8,0,17.9,1.3,25.6,9.3c6,6.1,8.9,15.2,8.9,23.6c0,8.9-3.1,16.8-8.3,21.8
		c-4.1,3.9-9.6,6.3-14.4,7.2l32.8,42.9h-33.8l-26.1-40.2v40.2h-27.2V10.5H572.5z M557.2,57.5h5.2c4.1,0,9.9-1.1,13.2-4.2
		c2-2,3.5-5.5,3.5-8.8c0-3.1-1.3-6.6-3.6-8.8c-2.5-2.5-7.1-4.1-13-4.1h-5.2V57.5z"/>
</g>
</svg>
