<?xml version="1.0" encoding="utf-8"?>
<!-- Generator: Adobe Illustrator 23.1.1, SVG Export Plug-In . SVG Version: 6.00 Build 0)  -->
<svg version="1.1" id="Layer_1" xmlns="http://www.w3.org/2000/svg" xmlns:xlink="http://www.w3.org/1999/xlink" x="0px" y="0px"
	 viewBox="0 0 257.9 64.2" style="enable-background:new 0 0 257.9 64.2;" xml:space="preserve">
<style type="text/css">
	.st0{fill:#8B8121;}
	.st1{fill:#FAF2A1;}
	.st2{enable-background:new    ;}
	.st3{fill:#0F7457;}
	.st4{fill:#00A878;}
</style>
<g id="Component_1_1" transform="translate(106.189)">
	<path id="Icon_awesome-github-alt" class="st0" d="M105.1,43.1c0,2.8-1.5,7.3-4.8,7.3s-4.8-4.5-4.8-7.3c0-2.8,1.5-7.3,4.8-7.3
		S105.1,40.3,105.1,43.1z M144.1,36.4c0.2,4.3-0.7,8.7-2.3,12.5c-5,10.2-18.8,9.8-28.7,9.8c-10,0-24.7,0.3-29.8-9.8
		c-1.8-4-2.8-8.2-2.7-12.5c0-5.5,1.8-10.8,5.5-15c-0.7-2.2-1-4.3-1-6.5c0-2.5,0.7-4.8,2-6.8c5.2-0.3,10.3,1.3,14.3,4.8
		c3.8-0.8,7.8-1.3,11.7-1.3c3.5,0,7.2,0.3,10.7,1.2c4-3.3,9.2-5,14.3-4.7c1.3,2,2,4.5,2,6.8c0,2.2-0.3,4.3-1,6.3
		C142.5,25.4,144.3,30.9,144.1,36.4L144.1,36.4z M135.6,43.1c0-5.8-3.5-11-9.7-11c-2.5,0.2-5,0.3-7.3,0.8c-2,0.3-4,0.5-6,0.5
		c-2,0-4-0.2-6-0.5c-2.5-0.5-5-0.7-7.3-0.8c-6.2,0-9.7,5.2-9.7,11c0,11.7,10.7,13.3,19.8,13.3h6.3C125,56.4,135.6,54.8,135.6,43.1z
		 M124.6,35.8c-3.3,0-4.8,4.5-4.8,7.3c0,2.8,1.5,7.3,4.8,7.3c3.3,0,4.8-4.5,4.8-7.3C129.5,40.3,128.1,35.8,124.6,35.8L124.6,35.8z"
		/>
	<path id="Icon_awesome-github-alt-2" class="st1" d="M102.5,40.4c0,2.8-1.5,7.3-4.8,7.3c-3.3,0-4.8-4.5-4.8-7.3
		c0-2.8,1.5-7.3,4.8-7.3C101.1,33.1,102.5,37.6,102.5,40.4z M141.5,33.8c0.2,4.3-0.7,8.7-2.3,12.5c-5,10.2-18.8,9.8-28.7,9.8
		c-10,0-24.7,0.3-29.8-9.8c-1.8-4-2.8-8.2-2.7-12.5c0-5.5,1.8-10.8,5.5-15c-0.7-2.2-1-4.3-1-6.5c0-2.5,0.7-4.8,2-6.8
		c5.2-0.3,10.3,1.3,14.3,4.8c3.8-0.8,7.8-1.3,11.7-1.3c3.5,0,7.2,0.3,10.7,1.2c4-3.3,9.2-5,14.3-4.7c1.3,2,2,4.5,2,6.8
		c0,2.2-0.3,4.3-1,6.3C139.8,22.7,141.6,28.1,141.5,33.8L141.5,33.8z M133,40.4c0-5.8-3.5-11-9.7-11c-2.5,0.2-5,0.3-7.3,0.8
		c-2,0.3-4,0.5-6,0.5c-2,0-4-0.2-6-0.5c-2.5-0.5-5-0.7-7.3-0.8c-6.2,0-9.7,5.2-9.7,11c0,11.7,10.7,13.3,19.8,13.3h6.3
		C122.3,53.8,133,51.9,133,40.4z M122,33.1c-3.3,0-4.8,4.5-4.8,7.3c0,2.8,1.5,7.3,4.8,7.3s4.8-4.5,4.8-7.3
		C126.8,37.6,125.5,33.1,122,33.1L122,33.1z"/>
</g>
<g class="st2">
	<path class="st1" d="M12.7,22.6l4.8,12.2l4.8-12.2h5.7l-8.5,20h-4l-8.3-20C7.2,22.6,12.7,22.6,12.7,22.6z"/>
	<path class="st1" d="M32.1,20.9c1.5,0,2.7,1.2,2.7,2.7c0,1.5-1.2,2.7-2.7,2.7c-1.5,0-2.7-1.2-2.7-2.7
		C29.4,22.1,30.6,20.9,32.1,20.9z M34.4,29.1v13.3h-4.8V29.1C29.6,29.1,34.4,29.1,34.4,29.1z"/>
	<path class="st1" d="M51.9,36.8h-10c0,0.7,0.3,1.7,0.8,2.3c0.3,0.3,0.8,0.7,2,0.7c0.2,0,1,0,1.5-0.3c0.3-0.2,0.7-0.5,0.8-0.8h4.7
		c-0.2,0.8-0.7,1.8-1.7,2.8c-1,1-2.5,1.8-5.5,1.8c-1.8,0-3.8-0.3-5.5-2c-0.8-0.8-2-2.5-2-5c0-2.3,0.8-4,2-5.2c1.2-1,2.8-2,5.5-2
		c1.5,0,3.5,0.3,5.2,1.8c1.8,1.8,2.2,4.2,2.2,5.7V36.8z M47.6,33.9c-0.2-0.5-0.5-1-0.8-1.5c-0.7-0.7-1.5-0.7-2-0.7
		c-0.8,0-1.5,0.2-2,0.7c-0.3,0.3-0.7,0.8-0.7,1.5H47.6z"/>
	<path class="st1" d="M58.4,29.1l3.2,7.2l3.3-7.2h3l3.3,7.3l3.3-7.3h5.3l-7,13.3h-3.2l-3.3-7.3l-3.2,7.3h-3.2l-6.8-13.3
		C53.2,29.1,58.4,29.1,58.4,29.1z"/>
	<path class="st1" d="M103.4,41.9c-2,0.8-3.2,1-4.5,1c-3.5,0-6.2-1.3-7.7-3c-2-2-3-4.7-3-7.3c0-2.8,1.2-5.5,3-7.3
		c1.8-1.8,4.5-3.2,7.5-3.2c1,0,2.5,0.2,4.7,1v6.2c-1.7-2-3.7-2.2-4.5-2.2c-1.5,0-2.7,0.5-3.7,1.3c-1.2,1.2-1.7,2.7-1.7,4.2
		c0,1.3,0.5,2.8,1.7,3.8c0.8,0.8,2.3,1.3,3.7,1.3c0.8,0,2.7-0.2,4.5-2.2C103.4,35.6,103.4,41.9,103.4,41.9z"/>
	<path class="st1" d="M119.8,40.8c-1.8,1.7-3.8,2.2-6,2.2c-2,0-4.2-0.3-6-2.2c-1.5-1.5-2-3.2-2-5c0-2.3,1-4,2-5c1.2-1,3-2.2,6-2.2
		c3,0,4.8,1.2,6,2.2c1,1,2,2.5,2,5C122,37.6,121.3,39.3,119.8,40.8z M111.8,33.6c-0.7,0.5-1,1.3-1,2.2c0,0.8,0.3,1.7,1,2.2
		c0.5,0.5,1.3,0.8,2.2,0.8c0.8,0,1.5-0.3,2.2-0.8s1-1.3,1-2.2c0-0.7-0.3-1.7-1-2.2c-0.5-0.5-1.3-0.8-2.2-0.8
		C113.1,32.8,112.3,33.1,111.8,33.6z"/>
	<path class="st1" d="M139.8,42.6H135v-1.5c-1.3,1.7-3.2,2-4,2c-2,0-3.5-0.7-4.7-1.8c-1.3-1.3-2.2-3.2-2.2-5.3c0-2.3,1-4.2,2.2-5.3
		c1.3-1.3,3.2-1.8,4.7-1.8c1.8,0,3.2,0.8,4,1.7v-9.8h4.8V42.6z M134.1,38.1c0.7-0.5,1-1.5,1-2.3c0-0.8-0.5-1.7-0.8-2.2
		c-0.5-0.5-1.3-0.8-2.2-0.8c-1,0-1.7,0.5-2.2,0.8c-0.5,0.5-1,1.3-1,2.3c0,0.7,0.3,1.5,1,2.2s1.5,0.8,2.2,0.8
		C133,38.9,133.6,38.6,134.1,38.1z"/>
	<path class="st1" d="M157.5,36.8h-10c0,0.7,0.3,1.7,0.8,2.3c0.3,0.3,0.8,0.7,2,0.7c0.2,0,1,0,1.5-0.3c0.3-0.2,0.7-0.5,0.8-0.8h4.7
		c-0.2,0.8-0.7,1.8-1.7,2.8c-1,1-2.5,1.8-5.5,1.8c-1.8,0-3.8-0.3-5.5-2c-0.8-0.8-2-2.5-2-5c0-2.3,0.8-4,2-5.2c1.2-1,2.8-2,5.5-2
		c1.5,0,3.5,0.3,5.2,1.8c1.8,1.8,2.2,4.2,2.2,5.7V36.8z M153,33.9c-0.2-0.5-0.5-1-0.8-1.5c-0.7-0.7-1.5-0.7-2-0.7
		c-0.8,0-1.5,0.2-2,0.7c-0.3,0.3-0.7,0.8-0.7,1.5H153z"/>
	<path class="st1" d="M161.5,42.3c-0.3-0.3-1-1.2-1-2.2s0.5-1.8,1-2.2c0.7-0.7,1.5-1,2.2-1s1.5,0.3,2.2,1c0.5,0.5,0.8,1.2,0.8,2.2
		c0,1-0.3,1.7-0.8,2.2c-0.7,0.7-1.3,1-2.2,1C163,43.1,162.1,42.9,161.5,42.3z M161.1,35.8V22.6h5v13.2H161.1z"/>
</g>
</svg>
